<?xml version="1.0" encoding="utf-8"?>
<!-- Generator: Adobe Illustrator 16.0.0, SVG Export Plug-In . SVG Version: 6.00 Build 0)  -->
<!DOCTYPE svg PUBLIC "-//W3C//DTD SVG 1.1//EN" "http://www.w3.org/Graphics/SVG/1.1/DTD/svg11.dtd">
<svg version="1.1" id="Layer_1" xmlns="http://www.w3.org/2000/svg" xmlns:xlink="http://www.w3.org/1999/xlink" x="0px" y="0px"
	 width="53.012px" height="22.214px" viewBox="0 0 53.012 22.214" enable-background="new 0 0 53.012 22.214" xml:space="preserve">
<g>
	<path d="M31.871,0.841c0,0.058-0.102,0.373-0.305,0.942c-0.203,0.571-0.469,1.315-0.797,2.233c-0.33,0.918-0.707,1.962-1.131,3.132
		c-0.426,1.17-0.866,2.374-1.32,3.61c-0.454,1.238-0.909,2.461-1.363,3.668c-0.455,1.209-0.866,2.316-1.232,3.321
		c-0.368,1.005-0.682,1.856-0.942,2.552c-0.261,0.696-0.431,1.15-0.508,1.363c-0.135,0.367-0.396,0.551-0.783,0.551
		c-0.174,0-0.333-0.053-0.479-0.16c-0.145-0.105-0.257-0.236-0.333-0.391L15.95,3.306L9.193,21.663
		c-0.135,0.367-0.396,0.551-0.783,0.551c-0.406,0-0.677-0.184-0.812-0.551C7.521,21.45,7.352,20.996,7.09,20.3
		c-0.261-0.695-0.575-1.547-0.942-2.552s-0.778-2.112-1.232-3.321c-0.455-1.207-0.909-2.43-1.363-3.668
		c-0.455-1.237-0.895-2.44-1.32-3.61C1.808,5.979,1.431,4.935,1.102,4.017C0.773,3.098,0.507,2.354,0.305,1.783
		C0.102,1.213,0,0.899,0,0.841c0-0.232,0.083-0.43,0.247-0.594S0.609,0,0.841,0c0.406,0,0.677,0.184,0.812,0.551L8.41,18.907
		l6.728-18.356c0.058-0.154,0.164-0.285,0.319-0.392C15.611,0.053,15.776,0,15.95,0c0.386,0,0.647,0.184,0.783,0.551l6.757,18.356
		l6.729-18.356c0.076-0.154,0.188-0.285,0.333-0.392C30.697,0.053,30.855,0,31.03,0c0.231,0,0.43,0.083,0.595,0.247
		C31.789,0.411,31.871,0.609,31.871,0.841z"/>
	<path d="M52.78,18.966c-1.063,1.044-2.267,1.847-3.61,2.407s-2.76,0.841-4.249,0.841c-1.547,0-2.991-0.29-4.335-0.87
		s-2.523-1.378-3.539-2.393c-1.014-1.015-1.813-2.194-2.392-3.538c-0.58-1.344-0.87-2.788-0.87-4.335c0-1.527,0.29-2.953,0.87-4.277
		c0.579-1.324,1.378-2.475,2.392-3.451c1.016-0.976,2.195-1.745,3.539-2.306c1.344-0.561,2.788-0.841,4.335-0.841
		c1.489,0,2.905,0.281,4.249,0.841c1.344,0.561,2.547,1.363,3.61,2.407c0.154,0.155,0.231,0.353,0.231,0.595
		s-0.077,0.44-0.231,0.594c-0.175,0.174-0.378,0.261-0.609,0.261s-0.435-0.087-0.608-0.261c-0.891-0.889-1.904-1.57-3.045-2.044
		c-1.142-0.473-2.34-0.71-3.597-0.71c-1.315,0-2.542,0.237-3.683,0.71c-1.141,0.474-2.137,1.122-2.987,1.943
		s-1.522,1.793-2.016,2.914c-0.493,1.122-0.739,2.33-0.739,3.625c0,1.315,0.246,2.542,0.739,3.683s1.165,2.137,2.016,2.987
		s1.847,1.522,2.987,2.015c1.141,0.494,2.367,0.74,3.683,0.74c1.257,0,2.455-0.232,3.597-0.696c1.141-0.464,2.154-1.149,3.045-2.059
		c0.174-0.155,0.377-0.232,0.608-0.232s0.435,0.077,0.609,0.232c0.154,0.174,0.231,0.377,0.231,0.608
		C53.012,18.589,52.935,18.792,52.78,18.966z"/>
</g>
</svg>
